<svg width="1000" height="1000" viewBox="0 0 1000 1000" fill="none" xmlns="http://www.w3.org/2000/svg">
<circle cx="500" cy="500" r="500" fill="#5B4C49"/>
<path d="M326.74 379.429C418.882 342.603 518.24 350.464 518.24 350.464C518.24 350.464 518.24 782.155 518.24 825.028C518.24 867.901 325.033 796.659 279.31 656.891C233.588 517.124 230.776 417.783 326.74 379.429Z" fill="white"/>
<path d="M676.74 379.098C584.598 342.272 485.24 350.133 485.24 350.133C485.24 350.133 485.24 781.823 485.24 824.697C485.24 867.57 678.447 796.327 724.169 656.56C769.892 516.792 772.704 417.452 676.74 379.098Z" fill="white"/>
<path d="M129.729 420.655C92.9672 372.654 131.049 286.994 213.454 223.883C310.091 149.873 393.763 330.104 448.21 359.004C457.85 414.588 429.868 353.451 332.147 383.857C249.741 446.968 166.491 468.656 129.729 420.655Z" fill="white"/>
<path d="M854.741 420.569C891.503 372.568 853.421 286.908 771.015 223.797C674.379 149.787 590.707 330.019 536.26 358.918C526.62 414.502 554.602 353.365 652.323 383.772C734.728 446.883 817.979 468.57 854.741 420.569Z" fill="white"/>
</svg>
