<svg width="1440" height="420" viewBox="0 0 1440 420" fill="none" xmlns="http://www.w3.org/2000/svg">
<g clip-path="url(#clip0_199_87)">
<path d="M857.239 146.417C871.89 129.295 854.242 122.915 876.486 113.748C903.853 102.47 896.894 120.911 913.298 124.423C931.854 128.396 957.766 145.327 949.746 165.823C938.431 194.743 928.356 172.719 905.948 181.487C886.149 189.235 892.145 225.01 856.559 199.945C840.364 188.539 844.018 161.867 857.239 146.417Z" fill="#9CA3AF" fill-opacity="0.12"/>
<path d="M829.436 122.015C839.899 126.084 847.052 139.926 842.888 150.631C838.725 161.336 824.82 164.85 814.358 160.781C803.896 156.711 786.54 144.828 792.345 129.903C796.509 119.198 818.974 117.945 829.436 122.015Z" fill="#9CA3AF" fill-opacity="0.12"/>
<path d="M864.672 81.4763C871.193 94.1958 865.844 105.596 854.91 111.202C843.976 116.807 831.597 114.494 825.077 101.775C818.556 89.0552 811.832 66.3379 827.077 58.523C838.011 52.9177 858.151 68.7567 864.672 81.4763Z" fill="#9CA3AF" fill-opacity="0.12"/>
<path d="M873.667 78.9346C878.38 92.4291 890.453 96.3745 902.213 92.268C913.973 88.1615 920.966 77.5582 916.254 64.0637C911.542 50.5692 900.129 29.3501 883.733 35.0754C871.973 39.1819 868.955 65.4401 873.667 78.9346Z" fill="#9CA3AF" fill-opacity="0.12"/>
<path d="M956.136 110.946C950.083 121.417 937.636 123.028 927.918 117.41C918.199 111.791 914.889 101.072 920.942 90.6012C926.995 80.1306 942.086 63.3653 955.636 71.1981C965.355 76.8162 962.189 100.476 956.136 110.946Z" fill="#9CA3AF" fill-opacity="0.12"/>
<path d="M880.158 350.158C902.521 352.937 898.109 334.696 918.024 348.195C942.525 364.803 923.304 369.169 929.422 384.79C936.342 402.46 936.51 433.412 914.99 438.027C884.626 444.538 897.44 423.987 877.768 410.132C860.385 397.888 833.85 422.621 835.131 379.113C835.714 359.313 859.978 347.651 880.158 350.158Z" fill="#9CA3AF" fill-opacity="0.12"/>
<path d="M885.179 313.508C887.555 324.479 879.954 338.081 868.728 340.511C857.502 342.942 846.902 333.282 844.526 322.31C842.151 311.339 842.491 290.308 858.142 286.919C869.368 284.488 882.804 302.536 885.179 313.508Z" fill="#9CA3AF" fill-opacity="0.12"/>
<path d="M938.428 320.542C931.414 332.997 918.955 334.823 908.249 328.793C897.543 322.764 892.644 311.163 899.658 298.708C906.672 286.254 921.914 268.116 936.84 276.522C947.546 282.552 945.442 308.088 938.428 320.542Z" fill="#9CA3AF" fill-opacity="0.12"/>
<path d="M945.51 326.644C936.852 338.017 940.22 350.264 950.131 357.809C960.042 365.354 972.744 365.34 981.402 353.966C990.06 342.593 1001.47 321.37 987.647 310.851C977.735 303.306 954.167 315.271 945.51 326.644Z" fill="#9CA3AF" fill-opacity="0.12"/>
<path d="M964.29 413.091C952.218 413.817 944.009 404.323 943.336 393.117C942.662 381.912 949.779 373.239 961.851 372.513C973.923 371.787 996.232 375.13 997.171 390.752C997.845 401.958 976.363 412.366 964.29 413.091Z" fill="#9CA3AF" fill-opacity="0.12"/>
<path d="M1325.81 377.435C1339.37 359.435 1321.36 354.166 1342.99 343.632C1369.6 330.673 1363.8 349.511 1380.39 351.996C1399.16 354.807 1426.08 370.093 1419.35 391.048C1409.85 420.616 1398.43 399.262 1376.61 409.407C1357.33 418.372 1365.54 453.704 1328.46 430.903C1311.59 420.526 1313.58 393.679 1325.81 377.435Z" fill="#9CA3AF" fill-opacity="0.12"/>
<path d="M1296.55 354.811C1307.24 358.221 1315.24 371.591 1311.75 382.534C1308.26 393.478 1294.6 397.85 1283.91 394.44C1273.21 391.029 1255.15 380.249 1260.02 364.992C1263.51 354.049 1285.85 351.4 1296.55 354.811Z" fill="#9CA3AF" fill-opacity="0.12"/>
<path d="M1329.19 312.158C1336.49 324.448 1331.86 336.159 1321.3 342.434C1310.73 348.709 1298.23 347.171 1290.93 334.881C1283.63 322.592 1275.51 300.337 1290.24 291.589C1300.8 285.314 1321.89 299.869 1329.19 312.158Z" fill="#9CA3AF" fill-opacity="0.12"/>
<path d="M1338.01 309.062C1343.55 322.237 1355.85 325.423 1367.33 320.593C1378.81 315.763 1385.13 304.745 1379.59 291.57C1374.05 278.395 1361.33 257.927 1345.33 264.661C1333.85 269.492 1332.47 295.887 1338.01 309.062Z" fill="#9CA3AF" fill-opacity="0.12"/>
<path d="M1422.31 335.88C1416.92 346.707 1404.6 349.089 1394.55 344.087C1384.5 339.084 1380.53 328.591 1385.92 317.764C1391.31 306.937 1405.33 289.265 1419.34 296.24C1429.39 301.242 1427.7 325.053 1422.31 335.88Z" fill="#9CA3AF" fill-opacity="0.12"/>
<path d="M381.458 154.017C407.058 131.945 382.332 118.49 417.391 109.931C460.524 99.4015 446.031 125.172 469.56 134.092C496.177 144.184 530.767 175.154 514.237 203.731C490.913 244.053 480.958 209.115 445.747 217.045C414.634 224.053 415.429 278.458 368.333 233.237C346.901 212.658 358.356 173.935 381.458 154.017Z" fill="#9CA3AF" fill-opacity="0.15"/>
<path d="M345.754 111.541C360.346 119.943 367.821 142.087 359.224 157.018C350.627 171.95 329.214 174.014 314.621 165.612C300.028 157.209 276.982 135.661 288.968 114.843C297.565 99.9122 331.161 103.139 345.754 111.541Z" fill="#9CA3AF" fill-opacity="0.15"/>
<path d="M407.177 59.4042C413.967 79.741 403.455 95.4355 385.974 101.272C368.492 107.109 350.66 100.878 343.869 80.5416C337.079 60.2049 332.251 24.9972 356.624 16.8593C374.106 11.0224 400.387 39.0675 407.177 59.4042Z" fill="#9CA3AF" fill-opacity="0.15"/>
<path d="M421.091 57.6711C425.024 78.7476 442.034 87.3306 460.401 83.9031C478.769 80.4755 491.538 66.3354 487.605 45.2589C483.672 24.1824 471.551 -9.86496 445.943 -5.08627C427.575 -1.65874 417.158 36.5946 421.091 57.6711Z" fill="#9CA3AF" fill-opacity="0.15"/>
<path d="M536.133 123.805C524.788 137.961 505.966 137.532 492.827 127.002C479.687 116.472 477.206 99.827 488.551 85.6709C499.896 71.5148 526.069 50.0704 544.388 64.7519C557.527 75.2822 547.478 109.648 536.133 123.805Z" fill="#9CA3AF" fill-opacity="0.15"/>
<path d="M1081.49 87.4008C1109.14 82.0391 1096.83 62.07 1125.73 70.3977C1161.28 80.6431 1140.13 93.2783 1153.45 109.473C1168.52 127.792 1180.71 164.512 1156.93 178.333C1123.36 197.835 1130.63 168.447 1101.88 159.602C1076.48 151.786 1054.53 191.46 1039.19 139.256C1032.22 115.5 1056.53 92.2393 1081.49 87.4008Z" fill="#9CA3AF" fill-opacity="0.15"/>
<path d="M1073.26 41.8986C1080.33 54.0174 1076.57 73.1265 1064.17 80.3646C1051.77 87.6027 1035.43 80.2288 1028.35 68.1101C1021.28 55.9914 1013.54 30.8648 1030.82 20.7734C1043.22 13.5353 1066.18 29.7799 1073.26 41.8986Z" fill="#9CA3AF" fill-opacity="0.15"/>
<path d="M1139.27 29.6284C1135.76 47.1471 1121.65 54.1445 1106.6 51.1268C1091.54 48.1091 1081.22 36.2191 1084.73 18.7004C1088.24 1.18171 1099.33 -26.279 1120.32 -22.0717C1135.38 -19.054 1142.78 12.1097 1139.27 29.6284Z" fill="#9CA3AF" fill-opacity="0.15"/>
<path d="M1150.05 34.1366C1144.16 51.0073 1152.91 64.2577 1167.61 69.3845C1182.31 74.5113 1197.4 69.5731 1203.29 52.7024C1209.17 35.8318 1214.5 6.19036 1194 -0.957472C1179.3 -6.08428 1155.93 17.266 1150.05 34.1366Z" fill="#9CA3AF" fill-opacity="0.15"/>
<path d="M1205.86 129.599C1191.79 135.139 1178.36 127.035 1173.21 113.979C1168.07 100.923 1173.17 87.8585 1187.24 82.3189C1201.3 76.7792 1229.11 72.1086 1236.28 90.3114C1241.42 103.367 1219.92 124.059 1205.86 129.599Z" fill="#9CA3AF" fill-opacity="0.15"/>
<path d="M630.731 267.052C658.862 265.602 649.46 244.11 676.913 256.39C710.687 271.497 687.979 281.056 698.911 298.951C711.276 319.194 718.224 357.256 692.74 367.623C656.783 382.25 668.081 354.164 640.849 341.393C616.787 330.108 589.512 366.33 581.614 312.497C578.019 287.999 605.346 268.36 630.731 267.052Z" fill="#9CA3AF" fill-opacity="0.15"/>
<path d="M628.93 220.846C634.243 233.833 627.849 252.23 614.561 257.667C601.272 263.103 586.121 253.521 580.808 240.534C575.494 227.547 571.333 201.585 589.86 194.005C603.149 188.569 623.617 207.858 628.93 220.846Z" fill="#9CA3AF" fill-opacity="0.15"/>
<path d="M696.005 217.908C690.084 234.765 675.145 239.726 660.654 234.637C646.163 229.547 637.608 216.333 643.529 199.476C649.45 182.619 664.261 156.974 684.464 164.071C698.955 169.16 701.926 201.051 696.005 217.908Z" fill="#9CA3AF" fill-opacity="0.15"/>
<path d="M706.05 223.876C697.87 239.761 704.683 254.103 718.525 261.231C732.368 268.36 747.999 265.576 756.179 249.691C764.359 233.807 773.776 205.199 754.476 195.261C740.634 188.132 714.23 207.992 706.05 223.876Z" fill="#9CA3AF" fill-opacity="0.15"/>
<path d="M747.993 326.194C733.291 329.716 721.119 319.817 717.85 306.171C714.581 292.526 721.452 280.3 736.153 276.778C750.855 273.256 779.042 272.511 783.6 291.537C786.869 305.182 762.694 322.672 747.993 326.194Z" fill="#9CA3AF" fill-opacity="0.15"/>
<path d="M69.4928 287.047C87.3882 265.294 65.177 257.748 92.7551 245.752C126.683 230.994 118.433 254.21 139.019 258.202C162.307 262.718 195.101 283.25 185.575 309.059C172.134 345.476 159.009 318.196 131.217 329.697C106.66 339.86 115.021 384.424 69.9388 353.962C49.4231 340.1 53.3438 306.677 69.4928 287.047Z" fill="#9CA3AF" fill-opacity="0.15"/>
<path d="M34.1538 257.224C47.3279 262.057 56.6034 279.182 51.6591 292.662C46.7148 306.141 29.4229 310.87 16.2489 306.038C3.07484 301.206 -18.9038 286.775 -12.0104 267.982C-7.06608 254.502 20.9798 252.392 34.1538 257.224Z" fill="#9CA3AF" fill-opacity="0.15"/>
<path d="M77.2079 205.707C85.6654 221.445 79.257 235.823 65.7279 243.093C52.1988 250.364 36.6722 247.773 28.2147 232.035C19.7572 216.296 10.8038 188.068 29.6662 177.932C43.1953 170.661 68.7505 189.968 77.2079 205.707Z" fill="#9CA3AF" fill-opacity="0.15"/>
<path d="M88.3883 202.313C94.6044 219.063 109.789 223.702 124.387 218.285C138.985 212.867 147.467 199.446 141.251 182.696C135.035 165.945 120.257 139.702 99.9051 147.255C85.3073 152.672 82.1722 185.562 88.3883 202.313Z" fill="#9CA3AF" fill-opacity="0.15"/>
<path d="M192.231 240.321C184.92 253.554 169.403 255.869 157.121 249.083C144.839 242.297 140.443 228.98 147.754 215.748C155.065 202.515 173.519 181.197 190.643 190.658C202.925 197.444 199.542 227.089 192.231 240.321Z" fill="#9CA3AF" fill-opacity="0.15"/>
<path d="M1109.78 323.076C1123.46 313.153 1111.71 305.411 1129.54 302.619C1151.47 299.183 1143.17 311.415 1154.51 316.847C1167.35 322.993 1183.29 339.875 1173.85 353.419C1160.54 372.53 1157.04 354.705 1139.17 357.177C1123.37 359.362 1121.48 386.502 1099.92 361.994C1090.1 350.842 1097.44 332.029 1109.78 323.076Z" fill="#9CA3AF" fill-opacity="0.15"/>
<path d="M1093.78 300.413C1100.7 305.212 1103.49 316.559 1098.58 323.637C1093.67 330.716 1082.91 330.845 1076 326.046C1069.08 321.247 1058.5 309.543 1065.35 299.675C1070.26 292.596 1086.86 295.614 1093.78 300.413Z" fill="#9CA3AF" fill-opacity="0.15"/>
<path d="M1126.57 277.016C1129.1 287.433 1123.2 294.812 1114.25 296.986C1105.29 299.16 1096.67 295.307 1094.14 284.889C1091.61 274.472 1090.68 256.727 1103.17 253.696C1112.12 251.522 1124.04 266.598 1126.57 277.016Z" fill="#9CA3AF" fill-opacity="0.15"/>
<path d="M1133.57 276.736C1134.65 287.403 1142.76 292.393 1152.06 291.456C1161.35 290.52 1168.31 284.011 1167.24 273.345C1166.16 262.679 1161.55 245.206 1148.59 246.512C1139.3 247.448 1132.5 266.07 1133.57 276.736Z" fill="#9CA3AF" fill-opacity="0.15"/>
<path d="M1188.12 314.516C1181.87 321.093 1172.51 320.089 1166.4 314.291C1160.3 308.493 1159.76 300.096 1166.01 293.519C1172.26 286.942 1186.2 277.357 1194.71 285.441C1200.81 291.239 1194.36 307.939 1188.12 314.516Z" fill="#9CA3AF" fill-opacity="0.15"/>
<path d="M644.189 81.3836C653.31 74.7687 645.473 69.6073 657.358 67.7458C671.979 65.4556 666.444 73.6096 674.01 77.2313C682.568 81.3283 693.191 92.5833 686.901 101.613C678.025 114.353 675.696 102.47 663.779 104.118C653.248 105.575 651.989 123.668 637.612 107.33C631.069 99.8944 635.958 87.3529 644.189 81.3836Z" fill="#9CA3AF" fill-opacity="0.1"/>
<path d="M633.518 66.2754C638.13 69.4746 639.993 77.0391 636.719 81.758C633.446 86.4768 626.276 86.5631 621.664 83.3639C617.052 80.1646 610 72.362 614.564 65.7829C617.838 61.064 628.906 63.0761 633.518 66.2754Z" fill="#9CA3AF" fill-opacity="0.1"/>
<path d="M655.379 50.6771C657.065 57.6221 653.135 62.5409 647.165 63.9904C641.195 65.4399 635.446 62.8711 633.76 55.9261C632.074 48.9811 631.455 37.1515 639.779 35.1306C645.749 33.6811 653.693 43.7321 655.379 50.6771Z" fill="#9CA3AF" fill-opacity="0.1"/>
<path d="M660.049 50.4909C660.766 57.6017 666.176 60.9287 672.372 60.3043C678.569 59.6799 683.207 55.3406 682.49 48.2298C681.774 41.119 678.7 29.4707 670.061 30.3412C663.864 30.9656 659.333 43.3801 660.049 50.4909Z" fill="#9CA3AF" fill-opacity="0.1"/>
<path d="M696.411 75.6774C692.246 80.0619 686.006 79.3928 681.937 75.5273C677.867 71.6618 677.509 66.0638 681.673 61.6793C685.838 57.2948 695.131 50.9045 700.805 56.2937C704.875 60.1592 700.575 71.2929 696.411 75.6774Z" fill="#9CA3AF" fill-opacity="0.1"/>
<path d="M478.89 340.831C488.973 335.804 482.091 329.426 494.12 329.541C508.919 329.683 502.12 336.817 508.988 341.632C516.758 347.079 525.388 359.925 517.7 367.799C506.853 378.909 506.507 366.805 494.481 366.474C483.854 366.182 479.641 383.823 468.142 365.345C462.909 356.937 469.791 345.368 478.89 340.831Z" fill="#9CA3AF" fill-opacity="0.1"/>
<path d="M470.845 324.176C474.869 328.089 475.464 335.857 471.46 339.974C467.457 344.092 460.37 342.999 456.346 339.086C452.322 335.173 446.647 326.319 452.229 320.578C456.233 316.461 466.821 320.263 470.845 324.176Z" fill="#9CA3AF" fill-opacity="0.1"/>
<path d="M494.971 312.379C495.494 319.507 490.809 323.713 484.681 324.163C478.554 324.612 473.306 321.135 472.783 314.007C472.26 306.879 473.592 295.109 482.135 294.482C488.262 294.033 494.448 305.252 494.971 312.379Z" fill="#9CA3AF" fill-opacity="0.1"/>
<path d="M499.608 312.962C499.147 320.094 503.937 324.264 510.152 324.666C516.368 325.068 521.654 321.549 522.115 314.417C522.576 307.285 521.457 295.29 512.792 294.73C506.577 294.328 500.069 305.83 499.608 312.962Z" fill="#9CA3AF" fill-opacity="0.1"/>
<path d="M531.34 343.778C526.512 347.419 520.467 345.734 517.087 341.253C513.707 336.772 514.273 331.191 519.101 327.55C523.929 323.908 534.146 319.131 538.858 325.379C542.237 329.86 536.168 340.136 531.34 343.778Z" fill="#9CA3AF" fill-opacity="0.1"/>
<path d="M1284.24 176.93C1295.34 174.995 1290.56 166.916 1302.06 170.465C1316.2 174.832 1307.64 179.725 1312.85 186.302C1318.74 193.743 1323.34 208.52 1313.72 213.868C1300.15 221.413 1303.28 209.715 1291.85 205.96C1281.75 202.641 1272.67 218.342 1266.93 197.348C1264.32 187.794 1274.22 178.676 1284.24 176.93Z" fill="#9CA3AF" fill-opacity="0.09"/>
<path d="M1281.29 158.67C1284.03 163.57 1282.38 171.184 1277.36 173.985C1272.35 176.785 1265.87 173.712 1263.13 168.812C1260.39 163.912 1257.49 153.805 1264.48 149.9C1269.49 147.099 1278.55 153.77 1281.29 158.67Z" fill="#9CA3AF" fill-opacity="0.09"/>
<path d="M1307.78 154.263C1306.24 161.242 1300.55 163.934 1294.55 162.613C1288.55 161.292 1284.52 156.459 1286.05 149.479C1287.59 142.499 1292.23 131.601 1300.6 133.443C1306.6 134.764 1309.32 147.283 1307.78 154.263Z" fill="#9CA3AF" fill-opacity="0.09"/>
<path d="M1312.06 156.147C1309.58 162.85 1312.97 168.215 1318.82 170.377C1324.66 172.539 1330.73 170.678 1333.21 163.976C1335.69 157.273 1338.05 145.459 1329.9 142.445C1324.06 140.283 1314.54 149.445 1312.06 156.147Z" fill="#9CA3AF" fill-opacity="0.09"/>
<path d="M1333.66 194.748C1327.99 196.857 1322.68 193.515 1320.72 188.254C1318.76 182.994 1320.9 177.807 1326.57 175.699C1332.23 173.59 1343.39 171.932 1346.12 179.267C1348.08 184.527 1339.32 192.639 1333.66 194.748Z" fill="#9CA3AF" fill-opacity="0.09"/>
<path d="M302.744 363.234C319.496 360.994 312.824 348.601 329.841 354.604C350.776 361.99 337.663 368.815 345.073 378.983C353.456 390.485 359.468 412.907 344.735 420.35C323.946 430.852 329.331 413.505 312.423 407.197C297.483 401.623 282.94 424.615 275.589 392.808C272.244 378.333 287.627 365.255 302.744 363.234Z" fill="#9CA3AF" fill-opacity="0.15"/>
<path d="M299.412 335.69C303.224 343.198 300.298 354.511 292.616 358.411C284.935 362.311 275.407 357.32 271.595 349.813C267.784 342.305 264.029 326.983 274.738 321.546C282.419 317.647 295.601 328.183 299.412 335.69Z" fill="#9CA3AF" fill-opacity="0.15"/>
<path d="M339.38 330.66C336.662 341.03 327.971 344.726 319.056 342.389C310.142 340.052 304.381 332.568 307.099 322.198C309.817 311.829 317.423 295.77 329.851 299.028C338.765 301.364 342.098 320.29 339.38 330.66Z" fill="#9CA3AF" fill-opacity="0.15"/>
<path d="M345.679 333.739C341.562 343.637 346.336 351.881 354.962 355.468C363.588 359.056 372.8 356.628 376.916 346.73C381.033 336.831 385.268 319.264 373.242 314.263C364.616 310.676 349.795 323.841 345.679 333.739Z" fill="#9CA3AF" fill-opacity="0.15"/>
<path d="M375.754 392.879C367.134 395.703 359.373 390.377 356.752 382.376C354.13 374.376 357.643 366.729 366.263 363.905C374.882 361.082 391.702 359.261 395.357 370.416C397.978 378.417 384.374 390.055 375.754 392.879Z" fill="#9CA3AF" fill-opacity="0.15"/>
<path d="M145.893 62.2523C157.553 50.0179 144.592 44.5308 161.619 38.5584C182.567 31.2108 176.615 44.7424 188.76 48.0316C202.497 51.7523 221.224 65.4726 214.395 80.5006C204.759 101.705 198.098 84.8063 180.964 90.4733C165.825 95.4808 168.879 122.514 143.234 102.314C131.563 93.1214 135.371 73.2927 145.893 62.2523Z" fill="#9CA3AF" fill-opacity="0.1"/>
<path d="M126.05 42.8608C133.722 46.3285 138.524 56.9822 134.976 64.8323C131.428 72.6823 120.873 74.756 113.201 71.2882C105.529 67.8205 93.0082 58.224 97.955 47.2795C101.503 39.4294 118.378 39.3931 126.05 42.8608Z" fill="#9CA3AF" fill-opacity="0.1"/>
<path d="M154.067 13.9152C158.439 23.703 153.976 32.0265 145.562 35.7854C137.148 39.5443 127.97 37.3153 123.598 27.5275C119.225 17.7396 115.102 0.456084 126.832 -4.78462C135.246 -8.54353 149.694 4.12741 154.067 13.9152Z" fill="#9CA3AF" fill-opacity="0.1"/>
<path d="M160.906 12.3728C163.893 22.6684 172.777 26.1079 181.749 23.5047C190.721 20.9014 196.384 13.2411 193.397 2.94553C190.41 -7.35004 182.714 -23.6998 170.205 -20.0703C161.233 -17.467 157.918 2.0772 160.906 12.3728Z" fill="#9CA3AF" fill-opacity="0.1"/>
<path d="M221.384 39.6585C216.43 47.2572 207.044 47.9639 199.991 43.3661C192.938 38.7684 190.889 30.6072 195.843 23.0086C200.796 15.4099 212.772 3.45991 222.605 9.87015C229.658 14.4679 226.337 32.0599 221.384 39.6585Z" fill="#9CA3AF" fill-opacity="0.1"/>
<path d="M1348.89 57.2523C1360.55 45.0179 1347.59 39.5308 1364.62 33.5584C1385.57 26.2108 1379.62 39.7424 1391.76 43.0316C1405.5 46.7523 1424.22 60.4726 1417.39 75.5006C1407.76 96.7048 1401.1 79.8063 1383.96 85.4733C1368.82 90.4808 1371.88 117.514 1346.23 97.314C1334.56 88.1214 1338.37 68.2927 1348.89 57.2523Z" fill="#9CA3AF" fill-opacity="0.11"/>
<path d="M1329.05 37.8608C1336.72 41.3285 1341.52 51.9822 1337.98 59.8323C1334.43 67.6823 1323.87 69.756 1316.2 66.2882C1308.53 62.8205 1296.01 53.224 1300.96 42.2795C1304.5 34.4294 1321.38 34.3931 1329.05 37.8608Z" fill="#9CA3AF" fill-opacity="0.11"/>
<path d="M1357.07 8.91523C1361.44 18.703 1356.98 27.0265 1348.56 30.7854C1340.15 34.5443 1330.97 32.3153 1326.6 22.5275C1322.22 12.7396 1318.1 -4.54392 1329.83 -9.78462C1338.25 -13.5435 1352.69 -0.872585 1357.07 8.91523Z" fill="#9CA3AF" fill-opacity="0.11"/>
<path d="M1363.91 7.37278C1366.89 17.6684 1375.78 21.1079 1384.75 18.5047C1393.72 15.9014 1399.38 8.24111 1396.4 -2.05447C1393.41 -12.35 1385.71 -28.6998 1373.21 -25.0703C1364.23 -22.467 1360.92 -2.9228 1363.91 7.37278Z" fill="#9CA3AF" fill-opacity="0.11"/>
<path d="M1424.38 34.6585C1419.43 42.2572 1410.04 42.9639 1402.99 38.3661C1395.94 33.7684 1393.89 25.6072 1398.84 18.0086C1403.8 10.4099 1415.77 -1.54009 1425.6 4.87015C1432.66 9.46792 1429.34 27.0599 1424.38 34.6585Z" fill="#9CA3AF" fill-opacity="0.11"/>
</g>
<defs>
<clipPath id="clip0_199_87">
<rect width="1440" height="420" fill="white"/>
</clipPath>
</defs>
</svg>
