<svg width="1000" height="1000" viewBox="0 0 1000 1000" fill="none" xmlns="http://www.w3.org/2000/svg">
<circle cx="500" cy="500" r="500" fill="#BCCDD7"/>
<ellipse cx="501" cy="574" rx="289" ry="259" fill="white"/>
<path d="M471.806 568.204C413.789 610.758 313.533 572.69 247.878 483.177C210.753 359.477 196.493 305.623 234.049 244.05C298.556 231.411 359.978 253.141 457.977 329.077C523.631 418.59 529.823 525.651 471.806 568.204Z" fill="white"/>
<path d="M528.049 568.204C586.066 610.758 686.322 572.69 751.977 483.177C789.102 359.477 803.362 305.623 765.806 244.05C701.299 231.411 639.877 253.141 541.878 329.077C476.224 418.59 470.032 525.651 528.049 568.204Z" fill="white"/>
</svg>
