<svg width="1494" height="355" viewBox="0 0 1494 355" fill="none" xmlns="http://www.w3.org/2000/svg">
<rect x="1042" y="311" width="188" height="34" rx="17" fill="#D8782D"/>
<rect x="1193" y="311" width="34" height="34" fill="#D8782D"/>
<rect x="1074" y="241" width="173" height="34" rx="17" fill="#D8782D"/>
<rect x="962" y="173" width="359" height="34" rx="17" fill="#D8782D"/>
<rect x="1050" y="105" width="99" height="34" rx="17" fill="#D8782D"/>
<rect x="1092" y="37" width="34" height="34" rx="17" fill="#D8782D"/>
<rect x="1149" y="37" width="221" height="34" rx="17" fill="#D8782D"/>
<rect x="1173" y="105" width="141" height="34" rx="17" fill="#D8782D"/>
<path d="M1493.14 151.5C1474.64 258 1386.64 155.597 1352.14 264.5C1271.23 264.5 1180.64 243.05 1180.64 176.5C1258.64 123 1258.14 56.0001 1351.64 44.5C1445.14 33 1408.14 129 1493.14 151.5Z" fill="#D8782D"/>
<ellipse cx="1412.18" cy="110.45" rx="8.56618" ry="9.07468" transform="rotate(10.2125 1412.18 110.45)" fill="#F9F5F1"/>
<path d="M1390.46 51.0065C1396.04 78.0499 1378.65 104.501 1351.6 110.087C1324.56 115.672 1293.73 95.0434 1288.14 68C1312.14 43 1354.14 13 1383.97 2.31139C1411.01 -3.27432 1384.87 23.963 1390.46 51.0065Z" fill="#D8782D"/>
<path d="M1352.64 263C1333.64 344.5 1229.64 265.5 1229.64 354.5C1177.64 344 1136 304.222 1136 245.404C1136 186.585 1177.97 101.801 1273 138.904C1352.64 170 1312.14 221 1352.64 263Z" fill="#5B4C49"/>
<ellipse cx="1306.18" cy="217.45" rx="8.56618" ry="9.07468" transform="rotate(10.2125 1306.18 217.45)" fill="#F9F5F1"/>
<path d="M1275.14 153C1275.14 180.614 1252.76 203 1225.14 203C1197.53 203 1173.64 179.114 1173.64 151.5C1202.64 122 1251.03 104 1278.64 104C1306.26 104 1275.14 125.386 1275.14 153Z" fill="#5B4C49"/>
<path d="M67.8 272C48 272 31.1 268.5 17.1 261.5C12.5 259.1 9.5 256.1 8.1 252.5C6.9 248.7 6.9 245.1 8.1 241.7C9.5 238.3 11.8 235.9 15 234.5C18.4 233.1 22.4 233.6 27 236C39.8 242.4 53.4 245.6 67.8 245.6C77.2 245.6 84.4 243.9 89.4 240.5C94.4 236.9 96.9 232.2 96.9 226.4C96.9 218.4 91.4 213.3 80.4 211.1L52.8 205.4C41.8 203.2 33.2 198.9 27 192.5C21 185.9 18 177.7 18 167.9C18 158.9 20.5 150.8 25.5 143.6C30.7 136.2 38.2 130.3 48 125.9C58 121.5 70 119.3 84 119.3C91.2 119.3 98.9 120.3 107.1 122.3C115.5 124.1 122.7 126.8 128.7 130.4C133.1 133 135.8 136.1 136.8 139.7C137.8 143.3 137.5 146.7 135.9 149.9C134.5 152.9 132.1 155 128.7 156.2C125.3 157.2 121.3 156.5 116.7 154.1C106.1 148.5 94.6 145.7 82.2 145.7C72.4 145.7 64.9 147.6 59.7 151.4C54.5 155 51.9 159.8 51.9 165.8C51.9 169.4 53 172.5 55.2 175.1C57.6 177.7 61.3 179.5 66.3 180.5L93.9 186.2C118.5 191.4 130.8 203.9 130.8 223.7C130.8 239.1 125 251 113.4 259.4C102 267.8 86.8 272 67.8 272ZM208.055 271.4C203.055 271.4 198.855 270 195.455 267.2C192.055 264.4 189.655 260 188.255 254L162.755 145.7C160.955 138.1 161.655 131.9 164.855 127.1C168.055 122.3 173.055 119.9 179.855 119.9C184.655 119.9 188.255 121.2 190.655 123.8C193.255 126.2 195.155 130.4 196.355 136.4L214.355 224.6L263.855 131C267.855 123.6 273.755 119.9 281.555 119.9C285.555 119.9 288.855 121 291.455 123.2C294.255 125.4 296.155 128.9 297.155 133.7L316.055 226.4L364.655 133.7C367.455 128.5 370.355 124.9 373.355 122.9C376.355 120.9 380.355 119.9 385.355 119.9C392.555 119.9 397.255 122.2 399.455 126.8C401.655 131.2 401.055 136.5 397.655 142.7L334.655 257.3C329.655 266.7 322.155 271.4 312.155 271.4C301.355 271.4 294.655 265.6 292.055 254L274.655 174.5L230.855 256.7C225.855 266.5 218.255 271.4 208.055 271.4ZM454.216 92.3C447.416 92.3 442.316 90.7 438.916 87.5C435.716 84.1 434.416 79.4 435.016 73.4C436.616 59.6 445.116 52.7 460.516 52.7C467.316 52.7 472.416 54.4 475.816 57.8C479.216 61 480.516 65.6 479.716 71.6C477.916 85.4 469.416 92.3 454.216 92.3ZM425.416 271.4C419.616 271.4 415.316 269.5 412.516 265.7C409.916 261.7 409.116 256.3 410.116 249.5L427.816 138.5C430.016 126.1 437.216 119.9 449.416 119.9C455.216 119.9 459.416 121.8 462.016 125.6C464.816 129.4 465.716 134.8 464.716 141.8L447.016 252.8C444.816 265.2 437.616 271.4 425.416 271.4ZM493.781 325.4C487.981 325.4 483.681 323.5 480.881 319.7C478.081 315.9 477.181 310.6 478.181 303.8L504.281 139.1C506.481 126.3 513.681 119.9 525.881 119.9C531.681 119.9 535.781 121.8 538.181 125.6C540.781 129.4 541.581 134.8 540.581 141.8L539.981 145.1C551.581 127.9 568.081 119.3 589.481 119.3C606.281 119.3 619.681 125 629.681 136.4C639.881 147.6 644.981 163 644.981 182.6C644.981 199.2 641.981 214.3 635.981 227.9C630.181 241.3 621.781 252 610.781 260C599.781 268 586.581 272 571.181 272C560.781 272 551.481 269.8 543.281 265.4C535.081 260.8 528.981 254 524.981 245L515.081 307.7C513.081 319.5 505.981 325.4 493.781 325.4ZM564.281 243.5C573.481 243.5 581.181 240.9 587.381 235.7C593.781 230.5 598.681 223.4 602.081 214.4C605.481 205.4 607.181 195.4 607.181 184.4C607.181 172.6 604.281 163.6 598.481 157.4C592.881 151 585.081 147.8 575.081 147.8C566.081 147.8 558.381 150.4 551.981 155.6C545.581 160.8 540.681 167.9 537.281 176.9C533.881 185.7 532.181 195.7 532.181 206.9C532.181 218.7 534.981 227.8 540.581 234.2C546.381 240.4 554.281 243.5 564.281 243.5ZM739.664 272C724.864 272 711.964 269.3 700.964 263.9C690.164 258.3 681.764 250.5 675.764 240.5C669.764 230.5 666.764 218.8 666.764 205.4C666.764 189 670.164 174.4 676.964 161.6C683.964 148.6 693.564 138.3 705.764 130.7C717.964 123.1 731.964 119.3 747.764 119.3C759.964 119.3 770.164 121.4 778.364 125.6C786.564 129.8 793.064 135.5 797.864 142.7C802.664 149.7 805.864 157.7 807.464 166.7C809.064 175.7 809.364 184.9 808.364 194.3C807.964 198.5 806.864 201.2 805.064 202.4C803.264 203.6 800.764 204.2 797.564 204.2H701.864C701.464 216.4 704.864 226 712.064 233C719.264 240 729.564 243.5 742.964 243.5C748.964 243.5 755.164 242.9 761.564 241.7C767.964 240.3 773.764 238.1 778.964 235.1C783.564 232.3 787.464 231.5 790.664 232.7C794.064 233.7 796.464 235.7 797.864 238.7C799.464 241.7 799.664 245.1 798.464 248.9C797.464 252.5 794.964 255.7 790.964 258.5C783.964 263.1 775.664 266.5 766.064 268.7C756.464 270.9 747.664 272 739.664 272ZM747.464 144.8C739.064 144.8 731.964 146.6 726.164 150.2C720.564 153.6 715.964 158.2 712.364 164C708.964 169.8 706.564 176 705.164 182.6H779.264C780.064 171.8 777.964 162.8 772.964 155.6C767.964 148.4 759.464 144.8 747.464 144.8ZM895.076 272C875.476 272 861.276 266.7 852.476 256.1C843.676 245.3 840.576 231.4 843.176 214.4L853.376 150.5H840.176C829.976 150.5 824.876 146.5 824.876 138.5C824.876 133.3 826.576 129.3 829.976 126.5C833.376 123.7 837.976 122.3 843.776 122.3H857.876L862.376 93.5C864.176 81.9 870.976 76.1 882.776 76.1C889.176 76.1 893.776 77.9 896.576 81.5C899.376 85.1 900.276 90.2 899.276 96.8L895.376 122.3H924.776C935.176 122.3 940.376 126.2 940.376 134C940.376 138.8 938.776 142.8 935.576 146C932.576 149 928.376 150.5 922.976 150.5H890.876L880.976 212C879.376 222.4 880.676 229.9 884.876 234.5C889.076 238.9 894.976 241.1 902.576 241.1C906.176 241.1 908.976 240.8 910.976 240.2C913.176 239.6 915.276 239.3 917.276 239.3C920.076 239.3 922.076 240.1 923.276 241.7C924.676 243.1 925.376 245.8 925.376 249.8C925.376 256.6 924.276 261.3 922.076 263.9C919.876 266.5 916.876 268.4 913.076 269.6C910.676 270.4 907.776 271 904.376 271.4C900.976 271.8 897.876 272 895.076 272Z" fill="#5B4C49"/>
</svg>
