<svg width="2000" height="1000" viewBox="0 0 2000 1000" fill="none" xmlns="http://www.w3.org/2000/svg">
<rect x="1274" y="634" width="188" height="34" rx="17" fill="white"/>
<rect x="1425" y="634" width="34" height="34" fill="white"/>
<rect x="1306" y="564" width="173" height="34" rx="17" fill="white"/>
<rect x="1194" y="496" width="359" height="34" rx="17" fill="white"/>
<rect x="1282" y="428" width="99" height="34" rx="17" fill="white"/>
<rect x="1324" y="360" width="34" height="34" rx="17" fill="white"/>
<rect x="1381" y="360" width="221" height="34" rx="17" fill="white"/>
<rect x="1405" y="428" width="141" height="34" rx="17" fill="white"/>
<path d="M1725.14 474.5C1706.64 581 1618.64 478.597 1584.14 587.5C1503.23 587.5 1412.64 566.05 1412.64 499.5C1490.64 446 1490.14 379 1583.64 367.5C1677.14 356 1640.14 452 1725.14 474.5Z" fill="white"/>
<ellipse cx="1644.18" cy="433.45" rx="8.56618" ry="9.07468" transform="rotate(10.2125 1644.18 433.45)" fill="#D8782D"/>
<path d="M1622.45 374.006C1628.04 401.05 1610.65 427.501 1583.6 433.087C1556.56 438.672 1525.73 418.043 1520.14 391C1544.14 366 1586.14 336 1615.97 325.311C1643.01 319.726 1616.87 346.963 1622.45 374.006Z" fill="white"/>
<path d="M1584.64 586C1565.64 667.5 1461.64 588.5 1461.64 677.5C1409.64 667 1368 627.222 1368 568.404C1368 509.585 1409.97 424.801 1505 461.904C1584.64 493 1544.14 544 1584.64 586Z" fill="#5B4C49"/>
<ellipse cx="1538.18" cy="540.45" rx="8.56618" ry="9.07468" transform="rotate(10.2125 1538.18 540.45)" fill="white"/>
<path d="M1507.14 476C1507.14 503.614 1484.76 526 1457.14 526C1429.53 526 1405.64 502.114 1405.64 474.5C1434.64 445 1483.03 427 1510.64 427C1538.26 427 1507.14 448.386 1507.14 476Z" fill="#5B4C49"/>
<path d="M299.8 595C280 595 263.1 591.5 249.1 584.5C244.5 582.1 241.5 579.1 240.1 575.5C238.9 571.7 238.9 568.1 240.1 564.7C241.5 561.3 243.8 558.9 247 557.5C250.4 556.1 254.4 556.6 259 559C271.8 565.4 285.4 568.6 299.8 568.6C309.2 568.6 316.4 566.9 321.4 563.5C326.4 559.9 328.9 555.2 328.9 549.4C328.9 541.4 323.4 536.3 312.4 534.1L284.8 528.4C273.8 526.2 265.2 521.9 259 515.5C253 508.9 250 500.7 250 490.9C250 481.9 252.5 473.8 257.5 466.6C262.7 459.2 270.2 453.3 280 448.9C290 444.5 302 442.3 316 442.3C323.2 442.3 330.9 443.3 339.1 445.3C347.5 447.1 354.7 449.8 360.7 453.4C365.1 456 367.8 459.1 368.8 462.7C369.8 466.3 369.5 469.7 367.9 472.9C366.5 475.9 364.1 478 360.7 479.2C357.3 480.2 353.3 479.5 348.7 477.1C338.1 471.5 326.6 468.7 314.2 468.7C304.4 468.7 296.9 470.6 291.7 474.4C286.5 478 283.9 482.8 283.9 488.8C283.9 492.4 285 495.5 287.2 498.1C289.6 500.7 293.3 502.5 298.3 503.5L325.9 509.2C350.5 514.4 362.8 526.9 362.8 546.7C362.8 562.1 357 574 345.4 582.4C334 590.8 318.8 595 299.8 595ZM440.055 594.4C435.055 594.4 430.855 593 427.455 590.2C424.055 587.4 421.655 583 420.255 577L394.755 468.7C392.955 461.1 393.655 454.9 396.855 450.1C400.055 445.3 405.055 442.9 411.855 442.9C416.655 442.9 420.255 444.2 422.655 446.8C425.255 449.2 427.155 453.4 428.355 459.4L446.355 547.6L495.855 454C499.855 446.6 505.755 442.9 513.555 442.9C517.555 442.9 520.855 444 523.455 446.2C526.255 448.4 528.155 451.9 529.155 456.7L548.055 549.4L596.655 456.7C599.455 451.5 602.355 447.9 605.355 445.9C608.355 443.9 612.355 442.9 617.355 442.9C624.555 442.9 629.255 445.2 631.455 449.8C633.655 454.2 633.055 459.5 629.655 465.7L566.655 580.3C561.655 589.7 554.155 594.4 544.155 594.4C533.355 594.4 526.655 588.6 524.055 577L506.655 497.5L462.855 579.7C457.855 589.5 450.255 594.4 440.055 594.4ZM686.216 415.3C679.416 415.3 674.316 413.7 670.916 410.5C667.716 407.1 666.416 402.4 667.016 396.4C668.616 382.6 677.116 375.7 692.516 375.7C699.316 375.7 704.416 377.4 707.816 380.8C711.216 384 712.516 388.6 711.716 394.6C709.916 408.4 701.416 415.3 686.216 415.3ZM657.416 594.4C651.616 594.4 647.316 592.5 644.516 588.7C641.916 584.7 641.116 579.3 642.116 572.5L659.816 461.5C662.016 449.1 669.216 442.9 681.416 442.9C687.216 442.9 691.416 444.8 694.016 448.6C696.816 452.4 697.716 457.8 696.716 464.8L679.016 575.8C676.816 588.2 669.616 594.4 657.416 594.4ZM725.781 648.4C719.981 648.4 715.681 646.5 712.881 642.7C710.081 638.9 709.181 633.6 710.181 626.8L736.281 462.1C738.481 449.3 745.681 442.9 757.881 442.9C763.681 442.9 767.781 444.8 770.181 448.6C772.781 452.4 773.581 457.8 772.581 464.8L771.981 468.1C783.581 450.9 800.081 442.3 821.481 442.3C838.281 442.3 851.681 448 861.681 459.4C871.881 470.6 876.981 486 876.981 505.6C876.981 522.2 873.981 537.3 867.981 550.9C862.181 564.3 853.781 575 842.781 583C831.781 591 818.581 595 803.181 595C792.781 595 783.481 592.8 775.281 588.4C767.081 583.8 760.981 577 756.981 568L747.081 630.7C745.081 642.5 737.981 648.4 725.781 648.4ZM796.281 566.5C805.481 566.5 813.181 563.9 819.381 558.7C825.781 553.5 830.681 546.4 834.081 537.4C837.481 528.4 839.181 518.4 839.181 507.4C839.181 495.6 836.281 486.6 830.481 480.4C824.881 474 817.081 470.8 807.081 470.8C798.081 470.8 790.381 473.4 783.981 478.6C777.581 483.8 772.681 490.9 769.281 499.9C765.881 508.7 764.181 518.7 764.181 529.9C764.181 541.7 766.981 550.8 772.581 557.2C778.381 563.4 786.281 566.5 796.281 566.5ZM971.664 595C956.864 595 943.964 592.3 932.964 586.9C922.164 581.3 913.764 573.5 907.764 563.5C901.764 553.5 898.764 541.8 898.764 528.4C898.764 512 902.164 497.4 908.964 484.6C915.964 471.6 925.564 461.3 937.764 453.7C949.964 446.1 963.964 442.3 979.764 442.3C991.964 442.3 1002.16 444.4 1010.36 448.6C1018.56 452.8 1025.06 458.5 1029.86 465.7C1034.66 472.7 1037.86 480.7 1039.46 489.7C1041.06 498.7 1041.36 507.9 1040.36 517.3C1039.96 521.5 1038.86 524.2 1037.06 525.4C1035.26 526.6 1032.76 527.2 1029.56 527.2H933.864C933.464 539.4 936.864 549 944.064 556C951.264 563 961.564 566.5 974.964 566.5C980.964 566.5 987.164 565.9 993.564 564.7C999.964 563.3 1005.76 561.1 1010.96 558.1C1015.56 555.3 1019.46 554.5 1022.66 555.7C1026.06 556.7 1028.46 558.7 1029.86 561.7C1031.46 564.7 1031.66 568.1 1030.46 571.9C1029.46 575.5 1026.96 578.7 1022.96 581.5C1015.96 586.1 1007.66 589.5 998.064 591.7C988.464 593.9 979.664 595 971.664 595ZM979.464 467.8C971.064 467.8 963.964 469.6 958.164 473.2C952.564 476.6 947.964 481.2 944.364 487C940.964 492.8 938.564 499 937.164 505.6H1011.26C1012.06 494.8 1009.96 485.8 1004.96 478.6C999.964 471.4 991.464 467.8 979.464 467.8ZM1127.08 595C1107.48 595 1093.28 589.7 1084.48 579.1C1075.68 568.3 1072.58 554.4 1075.18 537.4L1085.38 473.5H1072.18C1061.98 473.5 1056.88 469.5 1056.88 461.5C1056.88 456.3 1058.58 452.3 1061.98 449.5C1065.38 446.7 1069.98 445.3 1075.78 445.3H1089.88L1094.38 416.5C1096.18 404.9 1102.98 399.1 1114.78 399.1C1121.18 399.1 1125.78 400.9 1128.58 404.5C1131.38 408.1 1132.28 413.2 1131.28 419.8L1127.38 445.3H1156.78C1167.18 445.3 1172.38 449.2 1172.38 457C1172.38 461.8 1170.78 465.8 1167.58 469C1164.58 472 1160.38 473.5 1154.98 473.5H1122.88L1112.98 535C1111.38 545.4 1112.68 552.9 1116.88 557.5C1121.08 561.9 1126.98 564.1 1134.58 564.1C1138.18 564.1 1140.98 563.8 1142.98 563.2C1145.18 562.6 1147.28 562.3 1149.28 562.3C1152.08 562.3 1154.08 563.1 1155.28 564.7C1156.68 566.1 1157.38 568.8 1157.38 572.8C1157.38 579.6 1156.28 584.3 1154.08 586.9C1151.88 589.5 1148.88 591.4 1145.08 592.6C1142.68 593.4 1139.78 594 1136.38 594.4C1132.98 594.8 1129.88 595 1127.08 595Z" fill="#5B4C49"/>
</svg>
