<svg width="700" height="700" viewBox="0 0 700 700" fill="none" xmlns="http://www.w3.org/2000/svg">
<circle cx="350" cy="350" r="350" fill="#D8782D"/>
<rect x="164" y="484" width="188" height="34" rx="17" fill="white"/>
<rect x="315" y="484" width="34" height="34" fill="white"/>
<rect x="196" y="414" width="173" height="34" rx="17" fill="white"/>
<rect x="84" y="346" width="359" height="34" rx="17" fill="white"/>
<rect x="172" y="278" width="99" height="34" rx="17" fill="white"/>
<rect x="214" y="210" width="34" height="34" rx="17" fill="white"/>
<rect x="271" y="210" width="221" height="34" rx="17" fill="white"/>
<rect x="295" y="278" width="141" height="34" rx="17" fill="white"/>
<path d="M615.142 324.5C596.642 431 508.642 328.596 474.142 437.5C393.232 437.5 302.642 416.05 302.642 349.5C380.642 296 380.142 229 473.642 217.5C567.142 206 530.142 302 615.142 324.5Z" fill="white"/>
<ellipse cx="534.181" cy="283.45" rx="8.56618" ry="9.07468" transform="rotate(10.2125 534.181 283.45)" fill="#D8782D"/>
<path d="M512.455 224.006C518.041 251.05 500.646 277.501 473.603 283.087C446.559 288.672 415.728 268.043 410.142 241C434.142 216 476.142 186 505.971 175.311C533.015 169.726 506.87 196.963 512.455 224.006Z" fill="white"/>
<path d="M474.642 436C455.642 517.5 351.642 438.5 351.642 527.5C299.642 517 258 477.222 258 418.404C258 359.585 299.974 274.801 395 311.904C474.642 343 434.142 394 474.642 436Z" fill="#5B4C49"/>
<ellipse cx="428.181" cy="390.45" rx="8.56618" ry="9.07468" transform="rotate(10.2125 428.181 390.45)" fill="white"/>
<path d="M397.142 326C397.142 353.614 374.756 376 347.142 376C319.528 376 295.642 352.114 295.642 324.5C324.642 295 373.028 277 400.642 277C428.256 277 397.142 298.386 397.142 326Z" fill="#5B4C49"/>
</svg>
