<svg width="1000" height="1000" viewBox="0 0 1000 1000" fill="none" xmlns="http://www.w3.org/2000/svg">
<circle cx="500" cy="500" r="350" fill="#D8782D"/>
<rect x="314" y="634" width="188" height="34" rx="17" fill="white"/>
<rect x="465" y="634" width="34" height="34" fill="white"/>
<rect x="346" y="564" width="173" height="34" rx="17" fill="white"/>
<rect x="234" y="496" width="359" height="34" rx="17" fill="white"/>
<rect x="322" y="428" width="99" height="34" rx="17" fill="white"/>
<rect x="364" y="360" width="34" height="34" rx="17" fill="white"/>
<rect x="421" y="360" width="221" height="34" rx="17" fill="white"/>
<rect x="445" y="428" width="141" height="34" rx="17" fill="white"/>
<path d="M765.142 474.5C746.642 581 658.642 478.597 624.142 587.5C543.232 587.5 452.642 566.05 452.642 499.5C530.642 446 530.142 379 623.642 367.5C717.142 356 680.142 452 765.142 474.5Z" fill="white"/>
<ellipse cx="684.181" cy="433.45" rx="8.56618" ry="9.07468" transform="rotate(10.2125 684.181 433.45)" fill="#D8782D"/>
<path d="M662.455 374.006C668.041 401.05 650.646 427.501 623.603 433.087C596.559 438.672 565.728 418.043 560.142 391C584.142 366 626.142 336 655.971 325.311C683.015 319.726 656.87 346.963 662.455 374.006Z" fill="white"/>
<path d="M624.642 586C605.642 667.5 501.642 588.5 501.642 677.5C449.642 667 408 627.222 408 568.404C408 509.585 449.974 424.801 545 461.904C624.642 493 584.142 544 624.642 586Z" fill="#5B4C49"/>
<ellipse cx="578.181" cy="540.45" rx="8.56618" ry="9.07468" transform="rotate(10.2125 578.181 540.45)" fill="white"/>
<path d="M547.142 476C547.142 503.614 524.756 526 497.142 526C469.528 526 445.642 502.114 445.642 474.5C474.642 445 523.028 427 550.642 427C578.256 427 547.142 448.386 547.142 476Z" fill="#5B4C49"/>
</svg>
