<svg width="2000" height="1000" viewBox="0 0 2000 1000" fill="none" xmlns="http://www.w3.org/2000/svg">
<rect x="1274" y="634" width="188" height="34" rx="17" fill="white"/>
<rect x="1425" y="634" width="34" height="34" fill="white"/>
<rect x="1306" y="564" width="173" height="34" rx="17" fill="white"/>
<rect x="1194" y="496" width="359" height="34" rx="17" fill="white"/>
<rect x="1282" y="428" width="99" height="34" rx="17" fill="white"/>
<rect x="1324" y="360" width="34" height="34" rx="17" fill="white"/>
<rect x="1381" y="360" width="221" height="34" rx="17" fill="white"/>
<rect x="1405" y="428" width="141" height="34" rx="17" fill="white"/>
<path fill-rule="evenodd" clip-rule="evenodd" d="M1621.88 370.29C1642.16 377.703 1650.99 395.172 1660.5 413.995C1672.6 437.946 1685.82 464.09 1725.14 474.5C1715.93 527.542 1689.48 528.765 1660.98 530.083C1632.26 531.411 1601.46 532.836 1584.14 587.5C1503.23 587.5 1412.64 566.05 1412.64 499.5C1443.22 478.529 1461.73 455.483 1478.57 434.519L1478.57 434.519L1478.57 434.519C1491.79 418.069 1503.97 402.901 1520.15 391.022L1520.14 391C1544.14 366 1586.14 336 1615.97 325.311C1631.67 322.069 1629.45 329.889 1625.91 342.311C1623.63 350.305 1620.81 360.206 1621.88 370.29ZM1642.57 442.381C1647.23 443.219 1651.72 439.901 1652.61 434.968C1653.5 430.036 1650.45 425.358 1645.79 424.519C1641.13 423.68 1636.64 426.999 1635.75 431.931C1634.86 436.863 1637.92 441.542 1642.57 442.381Z" fill="white"/>
<path d="M1584.64 586C1565.64 667.5 1461.64 588.5 1461.64 677.5C1409.64 667 1368 627.222 1368 568.404C1368 509.585 1409.97 424.801 1505 461.904C1584.64 493 1544.14 544 1584.64 586Z" fill="#D8782D"/>
<ellipse cx="1538.18" cy="540.45" rx="8.56618" ry="9.07468" transform="rotate(10.2125 1538.18 540.45)" fill="white"/>
<path d="M1507.14 476C1507.14 503.614 1484.76 526 1457.14 526C1429.53 526 1405.64 502.114 1405.64 474.5C1434.64 445 1483.03 427 1510.64 427C1538.26 427 1507.14 448.386 1507.14 476Z" fill="#D8782D"/>
<path d="M299.8 595C290.4 595 281.2 594 272.2 592C263.4 590.2 255.7 587.7 249.1 584.5C245.3 582.7 242.6 580.4 241 577.6C239.6 574.6 239 571.7 239.2 568.9C239.6 565.9 240.6 563.4 242.2 561.4C244 559.2 246.3 557.8 249.1 557.2C252.1 556.6 255.4 557.2 259 559C265.4 562.2 272.1 564.6 279.1 566.2C286.1 567.8 293 568.6 299.8 568.6C309.2 568.6 316.4 566.9 321.4 563.5C326.4 559.9 328.9 555.2 328.9 549.4C328.9 545.4 327.5 542.1 324.7 539.5C321.9 536.9 317.8 535.1 312.4 534.1L284.8 528.4C273.8 526.2 265.2 521.9 259 515.5C253 508.9 250 500.7 250 490.9C250 481.9 252.5 473.8 257.5 466.6C262.7 459.2 270.2 453.3 280 448.9C290 444.5 302 442.3 316 442.3C323.2 442.3 330.9 443.3 339.1 445.3C347.5 447.1 354.7 449.8 360.7 453.4C364.1 455.4 366.5 457.9 367.9 460.9C369.3 463.7 369.7 466.5 369.1 469.3C368.7 471.9 367.6 474.2 365.8 476.2C364 478 361.6 479.1 358.6 479.5C355.6 479.9 352.3 479.1 348.7 477.1C343.7 474.3 338.2 472.2 332.2 470.8C326.2 469.4 320.2 468.7 314.2 468.7C304.4 468.7 296.9 470.6 291.7 474.4C286.5 478 283.9 482.8 283.9 488.8C283.9 492.4 285 495.5 287.2 498.1C289.6 500.7 293.3 502.5 298.3 503.5L325.9 509.2C337.9 511.8 347 516.3 353.2 522.7C359.6 528.9 362.8 536.9 362.8 546.7C362.8 562.1 357 574 345.4 582.4C334 590.8 318.8 595 299.8 595ZM440.055 594.4C435.055 594.4 430.855 593 427.455 590.2C424.055 587.4 421.655 583 420.255 577L394.755 468.7C393.555 463.5 393.455 459 394.455 455.2C395.655 451.4 397.755 448.4 400.755 446.2C403.755 444 407.455 442.9 411.855 442.9C416.655 442.9 420.255 444.2 422.655 446.8C425.255 449.2 427.155 453.4 428.355 459.4L448.455 557.8H440.955L495.855 454C498.055 450 500.455 447.2 503.055 445.6C505.855 443.8 509.355 442.9 513.555 442.9C517.555 442.9 520.855 444 523.455 446.2C526.255 448.4 528.155 451.9 529.155 456.7L549.855 557.8H543.855L596.655 456.7C599.455 451.5 602.355 447.9 605.355 445.9C608.355 443.9 612.355 442.9 617.355 442.9C622.155 442.9 625.855 444 628.455 446.2C631.055 448.2 632.455 450.9 632.655 454.3C632.855 457.7 631.855 461.5 629.655 465.7L566.655 580.3C564.055 585.1 560.855 588.7 557.055 591.1C553.455 593.3 549.155 594.4 544.155 594.4C539.155 594.4 534.855 593 531.255 590.2C527.855 587.2 525.455 582.8 524.055 577L501.555 474.7H518.655L462.855 579.7C460.255 584.7 457.055 588.4 453.255 590.8C449.655 593.2 445.255 594.4 440.055 594.4ZM657.416 594.4C651.616 594.4 647.316 592.5 644.516 588.7C641.916 584.7 641.116 579.3 642.116 572.5L659.816 461.5C660.816 455.3 663.116 450.7 666.716 447.7C670.316 444.5 675.216 442.9 681.416 442.9C687.216 442.9 691.416 444.8 694.016 448.6C696.816 452.4 697.716 457.8 696.716 464.8L679.016 575.8C678.016 582 675.716 586.7 672.116 589.9C668.716 592.9 663.816 594.4 657.416 594.4ZM686.216 415.3C679.416 415.3 674.316 413.7 670.916 410.5C667.716 407.1 666.416 402.4 667.016 396.4C667.816 389.6 670.416 384.5 674.816 381.1C679.216 377.5 685.116 375.7 692.516 375.7C699.316 375.7 704.416 377.4 707.816 380.8C711.216 384 712.516 388.6 711.716 394.6C710.916 401.4 708.316 406.6 703.916 410.2C699.716 413.6 693.816 415.3 686.216 415.3ZM725.781 648.4C719.981 648.4 715.681 646.5 712.881 642.7C710.081 638.9 709.181 633.6 710.181 626.8L736.281 462.1C737.281 455.7 739.581 450.9 743.181 447.7C746.781 444.5 751.681 442.9 757.881 442.9C763.681 442.9 767.781 444.8 770.181 448.6C772.781 452.4 773.581 457.8 772.581 464.8L769.881 481.6L769.281 472.6C774.881 462.8 782.081 455.3 790.881 450.1C799.881 444.9 810.081 442.3 821.481 442.3C832.681 442.3 842.381 444.9 850.581 450.1C858.981 455.1 865.481 462.4 870.081 472C874.681 481.4 876.981 492.6 876.981 505.6C876.981 522.2 873.981 537.3 867.981 550.9C862.181 564.3 853.781 575 842.781 583C831.781 591 818.581 595 803.181 595C791.981 595 781.981 592.3 773.181 586.9C764.581 581.5 758.581 573.5 755.181 562.9H757.881L747.081 630.7C746.081 636.9 743.881 641.4 740.481 644.2C737.081 647 732.181 648.4 725.781 648.4ZM796.281 566.5C805.481 566.5 813.181 563.9 819.381 558.7C825.781 553.5 830.681 546.4 834.081 537.4C837.481 528.4 839.181 518.4 839.181 507.4C839.181 495.6 836.281 486.6 830.481 480.4C824.881 474 817.081 470.8 807.081 470.8C798.081 470.8 790.381 473.4 783.981 478.6C777.581 483.8 772.681 490.9 769.281 499.9C765.881 508.7 764.181 518.7 764.181 529.9C764.181 541.7 766.981 550.8 772.581 557.2C778.381 563.4 786.281 566.5 796.281 566.5ZM971.664 595C956.864 595 943.964 592.3 932.964 586.9C922.164 581.3 913.764 573.5 907.764 563.5C901.764 553.5 898.764 541.8 898.764 528.4C898.764 512 902.164 497.4 908.964 484.6C915.964 471.6 925.564 461.3 937.764 453.7C949.964 446.1 963.964 442.3 979.764 442.3C991.964 442.3 1002.16 444.4 1010.36 448.6C1018.56 452.8 1025.06 458.5 1029.86 465.7C1034.66 472.7 1037.86 480.7 1039.46 489.7C1041.06 498.7 1041.36 507.9 1040.36 517.3C1039.96 521.5 1038.86 524.2 1037.06 525.4C1035.26 526.6 1032.76 527.2 1029.56 527.2H928.764L931.764 505.6H1015.76L1010.66 510.1C1011.86 502.1 1011.56 495 1009.76 488.8C1007.96 482.4 1004.56 477.3 999.564 473.5C994.764 469.7 988.064 467.8 979.464 467.8C970.664 467.8 963.264 469.8 957.264 473.8C951.264 477.8 946.564 483 943.164 489.4C939.764 495.6 937.464 502.3 936.264 509.5L934.764 518.8C932.364 533.4 934.764 545 941.964 553.6C949.164 562.2 960.164 566.5 974.964 566.5C980.964 566.5 987.164 565.9 993.564 564.7C999.964 563.3 1005.76 561.1 1010.96 558.1C1014.76 555.9 1018.06 555 1020.86 555.4C1023.86 555.6 1026.16 556.7 1027.76 558.7C1029.56 560.5 1030.66 562.8 1031.06 565.6C1031.46 568.2 1030.96 571 1029.56 574C1028.36 576.8 1026.16 579.3 1022.96 581.5C1015.96 586.1 1007.66 589.5 998.064 591.7C988.464 593.9 979.664 595 971.664 595ZM1127.08 595C1114.08 595 1103.38 592.6 1094.98 587.8C1086.58 582.8 1080.68 576 1077.28 567.4C1074.08 558.8 1073.38 548.8 1075.18 537.4L1085.38 473.5H1072.18C1067.38 473.5 1063.58 472.5 1060.78 470.5C1058.18 468.3 1056.88 465.3 1056.88 461.5C1056.88 456.3 1058.58 452.3 1061.98 449.5C1065.38 446.7 1069.98 445.3 1075.78 445.3H1089.88L1094.38 416.5C1095.38 410.7 1097.58 406.4 1100.98 403.6C1104.38 400.6 1108.98 399.1 1114.78 399.1C1121.18 399.1 1125.78 400.9 1128.58 404.5C1131.38 408.1 1132.28 413.2 1131.28 419.8L1127.38 445.3H1156.78C1161.78 445.3 1165.58 446.3 1168.18 448.3C1170.98 450.1 1172.38 453 1172.38 457C1172.38 461.8 1170.78 465.8 1167.58 469C1164.58 472 1160.38 473.5 1154.98 473.5H1122.88L1112.98 535C1111.38 545.4 1112.68 552.9 1116.88 557.5C1121.08 561.9 1126.98 564.1 1134.58 564.1C1138.18 564.1 1140.98 563.8 1142.98 563.2C1145.18 562.6 1147.28 562.3 1149.28 562.3C1152.08 562.3 1154.08 563.1 1155.28 564.7C1156.68 566.1 1157.38 568.8 1157.38 572.8C1157.38 579.6 1156.28 584.3 1154.08 586.9C1151.88 589.5 1148.88 591.4 1145.08 592.6C1142.68 593.4 1139.78 594 1136.38 594.4C1132.98 594.8 1129.88 595 1127.08 595Z" fill="#D8782D"/>
</svg>
