<svg width="1494" height="353" viewBox="0 0 1494 353" fill="none" xmlns="http://www.w3.org/2000/svg">
<rect x="1042" y="309.423" width="188" height="34" rx="17" fill="white"/>
<rect x="1193" y="309.423" width="34" height="34" fill="white"/>
<rect x="1074" y="239.423" width="173" height="34" rx="17" fill="white"/>
<rect x="962" y="171.423" width="359" height="34" rx="17" fill="white"/>
<rect x="1050" y="103.423" width="99" height="34" rx="17" fill="white"/>
<rect x="1092" y="35.4233" width="34" height="34" rx="17" fill="white"/>
<rect x="1149" y="35.4233" width="221" height="34" rx="17" fill="white"/>
<rect x="1173" y="103.423" width="141" height="34" rx="17" fill="white"/>
<path fill-rule="evenodd" clip-rule="evenodd" d="M1389.88 45.7135C1410.16 53.1266 1418.99 70.5954 1428.5 89.4185C1440.6 113.369 1453.82 139.513 1493.14 149.923C1483.93 202.965 1457.48 204.188 1428.98 205.506C1400.26 206.835 1369.46 208.259 1352.14 262.923C1271.23 262.923 1180.64 241.473 1180.64 174.923C1211.22 153.952 1229.73 130.907 1246.57 109.943L1246.57 109.943L1246.57 109.942C1259.79 93.4924 1271.97 78.324 1288.15 66.4451L1288.14 66.4233C1312.14 41.4233 1354.14 11.4233 1383.97 0.734687C1399.67 -2.50812 1397.45 5.31188 1393.91 17.7342C1391.63 25.7285 1388.81 35.6289 1389.88 45.7135ZM1410.57 117.804C1415.23 118.643 1419.72 115.324 1420.61 110.392C1421.5 105.459 1418.45 100.781 1413.79 99.9421C1409.13 99.1033 1404.64 102.422 1403.75 107.354C1402.86 112.287 1405.92 116.965 1410.57 117.804Z" fill="white"/>
<path d="M1352.64 261.423C1333.64 342.923 1229.64 263.923 1229.64 352.923C1177.64 342.423 1136 302.645 1136 243.827C1136 185.009 1177.97 100.224 1273 137.327C1352.64 168.423 1312.14 219.423 1352.64 261.423Z" fill="#D8782D"/>
<ellipse cx="1306.18" cy="215.873" rx="8.56618" ry="9.07468" transform="rotate(10.2125 1306.18 215.873)" fill="white"/>
<path d="M1275.14 151.423C1275.14 179.038 1252.76 201.423 1225.14 201.423C1197.53 201.423 1173.64 177.538 1173.64 149.923C1202.64 120.423 1251.03 102.423 1278.64 102.423C1306.26 102.423 1275.14 123.809 1275.14 151.423Z" fill="#D8782D"/>
<path d="M67.8 270.423C58.4 270.423 49.2 269.423 40.2 267.423C31.4 265.623 23.7 263.123 17.1 259.923C13.3 258.123 10.6 255.823 9 253.023C7.6 250.023 7 247.123 7.2 244.323C7.6 241.323 8.6 238.823 10.2 236.823C12 234.623 14.3 233.223 17.1 232.623C20.1 232.023 23.4 232.623 27 234.423C33.4 237.623 40.1 240.023 47.1 241.623C54.1 243.223 61 244.023 67.8 244.023C77.2 244.023 84.4 242.323 89.4 238.923C94.4 235.323 96.9 230.623 96.9 224.823C96.9 220.823 95.5 217.523 92.7 214.923C89.9 212.323 85.8 210.523 80.4 209.523L52.8 203.823C41.8 201.623 33.2 197.323 27 190.923C21 184.323 18 176.123 18 166.323C18 157.323 20.5 149.223 25.5 142.023C30.7 134.623 38.2 128.723 48 124.323C58 119.923 70 117.723 84 117.723C91.2 117.723 98.9 118.723 107.1 120.723C115.5 122.523 122.7 125.223 128.7 128.823C132.1 130.823 134.5 133.323 135.9 136.323C137.3 139.123 137.7 141.923 137.1 144.723C136.7 147.323 135.6 149.623 133.8 151.623C132 153.423 129.6 154.523 126.6 154.923C123.6 155.323 120.3 154.523 116.7 152.523C111.7 149.723 106.2 147.623 100.2 146.223C94.2 144.823 88.2 144.123 82.2 144.123C72.4 144.123 64.9 146.023 59.7 149.823C54.5 153.423 51.9 158.223 51.9 164.223C51.9 167.823 53 170.923 55.2 173.523C57.6 176.123 61.3 177.923 66.3 178.923L93.9 184.623C105.9 187.223 115 191.723 121.2 198.123C127.6 204.323 130.8 212.323 130.8 222.123C130.8 237.523 125 249.423 113.4 257.823C102 266.223 86.8 270.423 67.8 270.423ZM208.055 269.823C203.055 269.823 198.855 268.423 195.455 265.623C192.055 262.823 189.655 258.423 188.255 252.423L162.755 144.123C161.555 138.923 161.455 134.423 162.455 130.623C163.655 126.823 165.755 123.823 168.755 121.623C171.755 119.423 175.455 118.323 179.855 118.323C184.655 118.323 188.255 119.623 190.655 122.223C193.255 124.623 195.155 128.823 196.355 134.823L216.455 233.223H208.955L263.855 129.423C266.055 125.423 268.455 122.623 271.055 121.023C273.855 119.223 277.355 118.323 281.555 118.323C285.555 118.323 288.855 119.423 291.455 121.623C294.255 123.823 296.155 127.323 297.155 132.123L317.855 233.223H311.855L364.655 132.123C367.455 126.923 370.355 123.323 373.355 121.323C376.355 119.323 380.355 118.323 385.355 118.323C390.155 118.323 393.855 119.423 396.455 121.623C399.055 123.623 400.455 126.323 400.655 129.723C400.855 133.123 399.855 136.923 397.655 141.123L334.655 255.723C332.055 260.523 328.855 264.123 325.055 266.523C321.455 268.723 317.155 269.823 312.155 269.823C307.155 269.823 302.855 268.423 299.255 265.623C295.855 262.623 293.455 258.223 292.055 252.423L269.555 150.123H286.655L230.855 255.123C228.255 260.123 225.055 263.823 221.255 266.223C217.655 268.623 213.255 269.823 208.055 269.823ZM425.416 269.823C419.616 269.823 415.316 267.923 412.516 264.123C409.916 260.123 409.116 254.723 410.116 247.923L427.816 136.923C428.816 130.723 431.116 126.123 434.716 123.123C438.316 119.923 443.216 118.323 449.416 118.323C455.216 118.323 459.416 120.223 462.016 124.023C464.816 127.823 465.716 133.223 464.716 140.223L447.016 251.223C446.016 257.423 443.716 262.123 440.116 265.323C436.716 268.323 431.816 269.823 425.416 269.823ZM454.216 90.7233C447.416 90.7233 442.316 89.1233 438.916 85.9233C435.716 82.5233 434.416 77.8233 435.016 71.8233C435.816 65.0233 438.416 59.9233 442.816 56.5233C447.216 52.9233 453.116 51.1233 460.516 51.1233C467.316 51.1233 472.416 52.8233 475.816 56.2233C479.216 59.4233 480.516 64.0233 479.716 70.0233C478.916 76.8233 476.316 82.0233 471.916 85.6233C467.716 89.0233 461.816 90.7233 454.216 90.7233ZM493.781 323.823C487.981 323.823 483.681 321.923 480.881 318.123C478.081 314.323 477.181 309.023 478.181 302.223L504.281 137.523C505.281 131.123 507.581 126.323 511.181 123.123C514.781 119.923 519.681 118.323 525.881 118.323C531.681 118.323 535.781 120.223 538.181 124.023C540.781 127.823 541.581 133.223 540.581 140.223L537.881 157.023L537.281 148.023C542.881 138.223 550.081 130.723 558.881 125.523C567.881 120.323 578.081 117.723 589.481 117.723C600.681 117.723 610.381 120.323 618.581 125.523C626.981 130.523 633.481 137.823 638.081 147.423C642.681 156.823 644.981 168.023 644.981 181.023C644.981 197.623 641.981 212.723 635.981 226.323C630.181 239.723 621.781 250.423 610.781 258.423C599.781 266.423 586.581 270.423 571.181 270.423C559.981 270.423 549.981 267.723 541.181 262.323C532.581 256.923 526.581 248.923 523.181 238.323H525.881L515.081 306.123C514.081 312.323 511.881 316.823 508.481 319.623C505.081 322.423 500.181 323.823 493.781 323.823ZM564.281 241.923C573.481 241.923 581.181 239.323 587.381 234.123C593.781 228.923 598.681 221.823 602.081 212.823C605.481 203.823 607.181 193.823 607.181 182.823C607.181 171.023 604.281 162.023 598.481 155.823C592.881 149.423 585.081 146.223 575.081 146.223C566.081 146.223 558.381 148.823 551.981 154.023C545.581 159.223 540.681 166.323 537.281 175.323C533.881 184.123 532.181 194.123 532.181 205.323C532.181 217.123 534.981 226.223 540.581 232.623C546.381 238.823 554.281 241.923 564.281 241.923ZM739.664 270.423C724.864 270.423 711.964 267.723 700.964 262.323C690.164 256.723 681.764 248.923 675.764 238.923C669.764 228.923 666.764 217.223 666.764 203.823C666.764 187.423 670.164 172.823 676.964 160.023C683.964 147.023 693.564 136.723 705.764 129.123C717.964 121.523 731.964 117.723 747.764 117.723C759.964 117.723 770.164 119.823 778.364 124.023C786.564 128.223 793.064 133.923 797.864 141.123C802.664 148.123 805.864 156.123 807.464 165.123C809.064 174.123 809.364 183.323 808.364 192.723C807.964 196.923 806.864 199.623 805.064 200.823C803.264 202.023 800.764 202.623 797.564 202.623H696.764L699.764 181.023H783.764L778.664 185.523C779.864 177.523 779.564 170.423 777.764 164.223C775.964 157.823 772.564 152.723 767.564 148.923C762.764 145.123 756.064 143.223 747.464 143.223C738.664 143.223 731.264 145.223 725.264 149.223C719.264 153.223 714.564 158.423 711.164 164.823C707.764 171.023 705.464 177.723 704.264 184.923L702.764 194.223C700.364 208.823 702.764 220.423 709.964 229.023C717.164 237.623 728.164 241.923 742.964 241.923C748.964 241.923 755.164 241.323 761.564 240.123C767.964 238.723 773.764 236.523 778.964 233.523C782.764 231.323 786.064 230.423 788.864 230.823C791.864 231.023 794.164 232.123 795.764 234.123C797.564 235.923 798.664 238.223 799.064 241.023C799.464 243.623 798.964 246.423 797.564 249.423C796.364 252.223 794.164 254.723 790.964 256.923C783.964 261.523 775.664 264.923 766.064 267.123C756.464 269.323 747.664 270.423 739.664 270.423ZM895.076 270.423C882.076 270.423 871.376 268.023 862.976 263.223C854.576 258.223 848.676 251.423 845.276 242.823C842.076 234.223 841.376 224.223 843.176 212.823L853.376 148.923H840.176C835.376 148.923 831.576 147.923 828.776 145.923C826.176 143.723 824.876 140.723 824.876 136.923C824.876 131.723 826.576 127.723 829.976 124.923C833.376 122.123 837.976 120.723 843.776 120.723H857.876L862.376 91.9233C863.376 86.1233 865.576 81.8233 868.976 79.0233C872.376 76.0233 876.976 74.5233 882.776 74.5233C889.176 74.5233 893.776 76.3233 896.576 79.9233C899.376 83.5233 900.276 88.6233 899.276 95.2233L895.376 120.723H924.776C929.776 120.723 933.576 121.723 936.176 123.723C938.976 125.523 940.376 128.423 940.376 132.423C940.376 137.223 938.776 141.223 935.576 144.423C932.576 147.423 928.376 148.923 922.976 148.923H890.876L880.976 210.423C879.376 220.823 880.676 228.323 884.876 232.923C889.076 237.323 894.976 239.523 902.576 239.523C906.176 239.523 908.976 239.223 910.976 238.623C913.176 238.023 915.276 237.723 917.276 237.723C920.076 237.723 922.076 238.523 923.276 240.123C924.676 241.523 925.376 244.223 925.376 248.223C925.376 255.023 924.276 259.723 922.076 262.323C919.876 264.923 916.876 266.823 913.076 268.023C910.676 268.823 907.776 269.423 904.376 269.823C900.976 270.223 897.876 270.423 895.076 270.423Z" fill="#D8782D"/>
</svg>
