<svg width="425" height="345" viewBox="0 0 425 345" fill="none" xmlns="http://www.w3.org/2000/svg">
<path d="M280.227 144.282C237.477 165.617 266.672 192.651 215.664 192.183C152.909 191.607 181.727 161.342 152.595 140.937C119.64 117.854 83.0215 63.3933 115.608 29.9917C161.586 -17.1375 163.073 34.1896 214.071 35.572C259.134 36.7935 276.967 -38.0187 325.761 40.3144C347.966 75.9617 318.804 125.029 280.227 144.282Z" fill="#E5E5E5"/>
<path d="M314.369 214.894C297.299 198.308 294.76 165.37 311.731 147.904C328.703 130.438 358.757 135.058 375.827 151.645C392.897 168.231 416.975 205.769 393.314 230.12C376.343 247.586 331.438 231.481 314.369 214.894Z" fill="#E5E5E5"/>
<path d="M212.083 264.958C209.853 234.735 229.713 216.889 255.694 214.973C281.674 213.057 303.937 227.795 306.167 258.019C308.396 288.242 302.765 338.156 266.543 340.828C240.562 342.744 214.312 295.182 212.083 264.958Z" fill="#E5E5E5"/>
<path d="M192.418 262.493C194.36 232.25 174.042 214.575 147.686 212.882C121.33 211.19 98.9175 226.121 96.9753 256.364C95.0331 286.607 99.7974 337.468 136.543 339.828C162.899 341.521 190.476 292.736 192.418 262.493Z" fill="#E5E5E5"/>
<path d="M57.8107 131.877C78.2774 116.429 103.914 123.562 118.253 142.559C132.592 161.556 130.202 185.222 109.736 200.67C89.2693 216.118 45.9539 236.394 25.9627 209.909C11.624 190.912 37.3441 147.325 57.8107 131.877Z" fill="#E5E5E5"/>
</svg>
