<svg width="1500" height="1000" viewBox="0 0 1500 1000" fill="none" xmlns="http://www.w3.org/2000/svg">
<g clip-path="url(#clip0_163_2)">
<path d="M912.348 100.991C917.46 134.403 889.923 128.561 911.007 157.85C936.946 193.884 942.679 164.88 966.359 173.391C993.147 183.019 1039.56 181.961 1045.57 149.499C1054.05 103.695 1023.78 123.779 1002.17 94.8684C983.078 69.3225 1019.04 28.4898 953.857 32.2516C924.194 33.9635 907.735 70.8388 912.348 100.991Z" fill="#E5E5E5"/>
<path d="M857.606 110.071C874.158 113.169 894.23 101.196 897.399 84.2608C900.569 67.3256 885.636 51.8408 869.084 48.743C852.533 45.6452 821.013 47.0456 816.594 70.6568C813.424 87.592 841.055 106.973 857.606 110.071Z" fill="#E5E5E5"/>
<path d="M870.408 189.615C888.785 178.571 890.996 159.812 881.502 144.014C872.009 128.217 854.406 121.363 836.029 132.407C817.652 143.451 791.101 167.072 804.337 189.097C813.83 204.894 852.03 200.659 870.408 189.615Z" fill="#E5E5E5"/>
<path d="M879.857 199.974C896.543 186.512 915.049 191.043 926.781 205.585C938.514 220.126 939.03 239.172 922.343 252.635C905.656 266.098 874.317 284.097 857.96 263.823C846.227 249.281 863.17 213.437 879.857 199.974Z" fill="#E5E5E5"/>
<path d="M1010.27 224.475C1010.85 206.343 996.265 194.437 979.435 193.901C962.605 193.365 949.902 204.403 949.325 222.535C948.748 240.667 954.703 273.975 978.168 274.722C994.997 275.257 1009.69 242.607 1010.27 224.475Z" fill="#E5E5E5"/>
<path d="M1339.27 129.926C1348.34 162.488 1320.3 159.98 1344.74 186.538C1374.8 219.212 1377.02 189.73 1401.55 195.348C1429.3 201.704 1475.26 195.103 1477.34 162.156C1480.28 115.667 1452.63 139.226 1427.72 113.107C1405.71 90.0277 1436.53 45.1878 1372.26 56.7169C1343.02 61.9634 1331.09 100.542 1339.27 129.926Z" fill="#E5E5E5"/>
<path d="M1286.01 145.487C1302.81 146.583 1321.31 132.297 1322.43 115.104C1323.55 97.9112 1306.87 84.323 1290.07 83.2266C1273.27 82.1302 1242.14 87.2896 1240.58 111.26C1239.46 128.453 1269.21 144.391 1286.01 145.487Z" fill="#E5E5E5"/>
<path d="M1308.23 222.93C1325.15 209.768 1325.11 190.878 1313.79 176.329C1302.48 161.78 1284.18 157.081 1267.26 170.243C1250.33 183.405 1226.8 210.031 1242.57 230.316C1253.88 244.865 1291.3 236.091 1308.23 222.93Z" fill="#E5E5E5"/>
<path d="M1318.85 232.085C1333.81 216.723 1352.72 219.009 1366.11 232.044C1379.5 245.078 1382.28 263.926 1367.33 279.287C1352.37 294.649 1323.41 316.267 1304.74 298.094C1291.36 285.059 1303.89 247.446 1318.85 232.085Z" fill="#E5E5E5"/>
<path d="M1451.26 240.815C1449.66 222.744 1433.76 212.667 1416.99 214.148C1400.21 215.628 1388.92 228.106 1390.52 246.177C1392.11 264.248 1402.01 296.604 1425.39 294.54C1442.17 293.06 1452.85 258.887 1451.26 240.815Z" fill="#E5E5E5"/>
<path d="M970.592 542.99C986.691 572.712 958.799 576.515 988.538 596.96C1025.12 622.114 1020.72 592.877 1045.89 592.889C1074.35 592.902 1117.68 576.226 1112.37 543.642C1104.88 497.667 1083.17 526.796 1053.07 506.885C1026.47 489.29 1046.52 438.71 986.44 464.27C959.099 475.901 956.064 516.169 970.592 542.99Z" fill="#E5E5E5"/>
<path d="M922.136 570.028C938.761 567.353 953.609 549.304 950.871 532.293C948.134 515.283 928.848 505.753 912.223 508.428C895.598 511.104 866.404 523.069 870.22 546.785C872.958 563.796 905.511 572.704 922.136 570.028Z" fill="#E5E5E5"/>
<path d="M961.056 640.573C974.622 623.97 970.366 605.567 956.094 593.905C941.822 582.243 922.939 581.739 909.373 598.341C895.806 614.944 878.796 646.145 898.694 662.404C912.966 674.066 947.489 657.175 961.056 640.573Z" fill="#E5E5E5"/>
<path d="M973.448 647.131C984.606 628.823 1003.56 626.837 1019.51 636.56C1035.47 646.284 1042.38 664.036 1031.23 682.344C1020.07 700.652 996.652 728.181 974.407 714.624C958.452 704.9 962.29 665.44 973.448 647.131Z" fill="#E5E5E5"/>
<path d="M1104.47 626.136C1098.89 608.875 1081.14 602.595 1065.12 607.776C1049.1 612.957 1040.87 627.637 1046.45 644.898C1052.03 662.16 1068.89 691.497 1091.23 684.274C1107.25 679.093 1110.05 643.398 1104.47 626.136Z" fill="#E5E5E5"/>
<path d="M133.054 743.236C138.025 776.67 110.513 770.71 131.472 800.089C157.257 836.233 163.113 807.253 186.758 815.865C213.504 825.606 259.925 824.746 266.072 792.309C274.744 746.542 244.387 766.497 222.903 737.495C203.918 711.868 240.053 671.189 174.855 674.673C145.185 676.259 128.569 713.064 133.054 743.236Z" fill="#E5E5E5"/>
<path d="M78.275 752.083C94.813 755.251 114.936 743.364 118.177 726.442C121.419 709.521 106.552 693.973 90.0137 690.805C73.4757 687.636 41.9498 688.903 37.4304 712.495C34.1889 729.417 61.7369 748.915 78.275 752.083Z" fill="#E5E5E5"/>
<path d="M90.7385 831.682C109.163 820.716 111.453 801.966 102.027 786.128C92.6005 770.291 75.0274 763.363 56.6033 774.328C38.1792 785.294 11.5284 808.802 24.6704 830.883C34.0966 846.721 72.3144 842.647 90.7385 831.682Z" fill="#E5E5E5"/>
<path d="M100.143 842.081C116.887 828.69 135.373 833.299 147.044 847.891C158.714 862.483 159.149 881.53 142.405 894.922C125.661 908.314 94.2457 926.18 77.9747 905.836C66.3043 891.245 83.3991 855.473 100.143 842.081Z" fill="#E5E5E5"/>
<path d="M230.452 867.135C231.106 849.006 216.574 837.038 199.746 836.43C182.919 835.823 170.169 846.806 169.514 864.936C168.86 883.065 174.674 916.398 198.135 917.245C214.962 917.852 229.798 885.265 230.452 867.135Z" fill="#E5E5E5"/>
<path d="M486.965 331.097C488.11 364.88 461.452 355.838 478.943 387.405C500.462 426.24 509.568 398.112 532.082 409.35C557.551 422.063 603.77 426.474 613.557 394.944C627.365 350.456 594.941 366.839 576.885 335.587C560.93 307.972 601.446 271.654 536.274 267.72C506.616 265.93 485.932 300.612 486.965 331.097Z" fill="#E5E5E5"/>
<path d="M431.535 333.673C447.607 338.697 468.949 329.169 474.089 312.725C479.229 296.28 466.222 279.146 450.15 274.122C434.078 269.098 402.612 266.78 395.446 289.707C390.305 306.152 415.463 328.649 431.535 333.673Z" fill="#E5E5E5"/>
<path d="M434.888 414.171C454.437 405.367 458.84 386.997 451.271 370.193C443.703 353.388 427.029 344.511 407.48 353.316C387.931 362.12 358.785 382.453 369.337 405.882C376.906 422.687 415.339 422.976 434.888 414.171Z" fill="#E5E5E5"/>
<path d="M443.052 425.57C461.207 414.165 479.051 420.842 488.991 436.663C498.931 452.485 497.202 471.459 479.047 482.864C460.892 494.27 427.653 508.457 413.795 486.399C403.855 470.578 424.898 436.976 443.052 425.57Z" fill="#E5E5E5"/>
<path d="M569.678 465.246C572.385 447.308 559.303 433.769 542.654 431.256C526.004 428.744 512.09 438.21 509.383 456.148C506.676 474.086 508.671 507.863 531.885 511.366C548.535 513.879 566.971 483.185 569.678 465.246Z" fill="#E5E5E5"/>
<path d="M558.105 788.46C570.214 820.019 542.065 820.173 568.901 844.302C601.918 873.987 601.344 844.427 626.293 847.701C654.516 851.405 699.644 840.489 698.603 807.491C697.134 760.933 671.833 787.002 644.566 763.354C620.471 742.459 646.914 694.906 584.027 712.46C555.409 720.448 547.178 759.982 558.105 788.46Z" fill="#E5E5E5"/>
<path d="M506.553 808.987C523.384 808.49 540.447 792.518 539.938 775.297C539.429 758.075 521.542 746.124 504.711 746.622C487.879 747.119 457.38 755.198 458.089 779.209C458.598 796.431 489.721 809.484 506.553 808.987Z" fill="#E5E5E5"/>
<path d="M535.996 883.982C551.6 869.279 549.766 850.479 537.127 837.065C524.488 823.651 505.83 820.703 490.225 835.406C474.621 850.109 453.708 878.841 471.33 897.543C483.969 910.957 520.391 898.686 535.996 883.982Z" fill="#E5E5E5"/>
<path d="M547.434 892.093C560.871 875.386 579.918 875.873 594.477 887.583C609.037 899.294 613.596 917.793 600.158 934.5C586.72 951.207 559.932 975.466 539.633 959.139C525.073 947.429 533.996 908.799 547.434 892.093Z" fill="#E5E5E5"/>
<path d="M680.074 888.265C676.777 870.426 659.993 861.898 643.435 864.957C626.877 868.017 616.815 881.506 620.112 899.345C623.408 917.185 636.319 948.461 659.404 944.195C675.962 941.135 683.37 906.105 680.074 888.265Z" fill="#E5E5E5"/>
</g>
<defs>
<clipPath id="clip0_163_2">
<rect width="1500" height="1000" fill="white" transform="translate(1500 1000) rotate(180)"/>
</clipPath>
</defs>
</svg>
